<svg xmlns="http://www.w3.org/2000/svg" viewBox="0 0 64 64" width="64" height="64">
  <!-- Engineering: Simple gear/cog outline with teeth -->
  <path fill="none" stroke="#BC5C45" stroke-width="2.5" stroke-linejoin="round" d="M28 4h8l1 6.5c2 .6 3.8 1.5 5.4 2.7l6-3.2 5.6 5.6-3.2 6c1.2 1.6 2.1 3.4 2.7 5.4L60 28v8l-6.5 1c-.6 2-1.5 3.8-2.7 5.4l3.2 6-5.6 5.6-6-3.2c-1.6 1.2-3.4 2.1-5.4 2.7L36 60h-8l-1-6.5c-2-.6-3.8-1.5-5.4-2.7l-6 3.2-5.6-5.6 3.2-6c-1.2-1.6-2.1-3.4-2.7-5.4L4 36v-8l6.5-1c.6-2 1.5-3.8 2.7-5.4l-3.2-6 5.6-5.6 6 3.2c1.6-1.2 3.4-2.1 5.4-2.7L28 4z"/>
  <circle cx="32" cy="32" r="10" fill="none" stroke="#BC5C45" stroke-width="2.5"/>
</svg>
