<svg xmlns="http://www.w3.org/2000/svg" width="258.225" height="47.254" viewBox="0 0 258.225 47.254">
  <g id="Group_9774" data-name="Group 9774" transform="translate(-39.98 -21)">
    <g id="Group_9759" data-name="Group 9759" transform="translate(-147.579 -225.673)">
      <g id="Group_9757" data-name="Group 9757" transform="translate(187.559 246.706)">
        <g id="Group_9756" data-name="Group 9756" transform="translate(0 0)">
          <path id="Path_4516" data-name="Path 4516" d="M221.723,356.566c-.7-2.056-3.161-9.356-3.429-10.15l-.459.092c-.673-1.7-1.8-6.06-7-6.06h-1.181v7.387l1.01,3.122a19.331,19.331,0,0,0-12.484-2.569l.583-1.67v-6.269l-1.4.007-5.934,16.076c-.781,1.891-1.645,4.194-3.865,4.688v1.028h9.047v-1.028c-2.111-.234-2.364-1.38-1.111-5.14,0,0,1.086-3.064,1.1-3.066a15.182,15.182,0,0,1,16.615,5.943,2.3,2.3,0,0,1-2.256,2.259v1.028h14.187v-1.028C222.957,360.966,222.34,358.293,221.723,356.566Z" transform="translate(-187.559 -325.596)" fill="#003772"/>
          <path id="Path_4517" data-name="Path 4517" d="M274.764,248.935c0-.7.329-.946.946-1.028v-1.028H263.7v1.028c1.506.215.813,1.791.206,3.249l-1.888,5.113h3.48l1.368-3.92,1.269,3.92h8.971C276.817,255.394,274.764,249.095,274.764,248.935Z" transform="translate(-250.201 -246.879)" fill="#003772"/>
          <path id="Path_4518" data-name="Path 4518" d="M257.109,437.533v-11.51a13.929,13.929,0,0,0-8.431-2.276v13.786c0,3.933-1.382,4.289-3.249,4.318v1.028h14.927v-1.028C258.137,441.817,257.109,441.053,257.109,437.533Z" transform="translate(-236.245 -395.658)" fill="#003772"/>
          <path id="Path_4519" data-name="Path 4519" d="M204.849,313.3h2.46v7.785a19.678,19.678,0,0,1,8.431,1.476V313.3H218.2c4.029.247,6.332,2.22,7.731,5.88l.822-.164-1.892-9.376c-.617.864-2.755.658-3.66.658H201.519c-.864,0-2.755.247-3.248-.658l-2.015,9.376.863.164C198.105,315.439,200.983,313.383,204.849,313.3Z" transform="translate(-194.875 -299.679)" fill="#003772"/>
        </g>
      </g>
      <g id="Group_9758" data-name="Group 9758" transform="translate(214.597 246.673)">
        <path id="Path_4520" data-name="Path 4520" d="M358.87,247.142a.482.482,0,1,1-.477-.469A.472.472,0,0,1,358.87,247.142Zm-.843,0a.365.365,0,0,0,.366.374.359.359,0,0,0,.357-.371.362.362,0,1,0-.723,0Zm.289.243h-.108v-.469a1.243,1.243,0,0,1,.18-.014.249.249,0,0,1,.16.037.118.118,0,0,1,.049.1.121.121,0,0,1-.1.111v.006c.046.014.069.051.083.114a.426.426,0,0,0,.034.114H358.5a.376.376,0,0,1-.037-.114c-.009-.049-.037-.072-.1-.072h-.052Zm0-.263h.051c.06,0,.109-.02.109-.069s-.032-.071-.1-.071a.272.272,0,0,0-.06.006Z" transform="translate(-357.907 -246.673)" fill="#003772"/>
      </g>
    </g>
    <path id="Path_4606" data-name="Path 4606" d="M21.63,0h4.76L15.33-24.5H10.85L-.175,0h4.69L6.93-5.67H19.18ZM8.47-9.24l4.585-10.71,4.62,10.71ZM45.885-4.9a9.9,9.9,0,0,1-5.04,1.26c-5.18,0-8.855-3.64-8.855-8.61,0-5.075,3.675-8.61,8.89-8.61a9.093,9.093,0,0,1,6.755,2.8l2.87-2.8c-2.31-2.625-5.74-3.99-9.835-3.99-7.665,0-13.265,5.285-13.265,12.6S33.005.35,40.6.35a15.512,15.512,0,0,0,9.59-3.115V-12.53H45.885Zm27.02,0a9.9,9.9,0,0,1-5.04,1.26c-5.18,0-8.855-3.64-8.855-8.61,0-5.075,3.675-8.61,8.89-8.61a9.093,9.093,0,0,1,6.755,2.8l2.87-2.8c-2.31-2.625-5.74-3.99-9.835-3.99-7.665,0-13.265,5.285-13.265,12.6S60.025.35,67.62.35a15.512,15.512,0,0,0,9.59-3.115V-12.53H72.9ZM83.195,0h4.55V-24.5h-4.55ZM98.91-3.815V-10.57h11.83v-3.745H98.91v-6.37h13.335V-24.5H94.36V0h18.375V-3.815ZM144.69-24.5v10.115H132.02V-24.5h-4.55V0h4.55V-10.5h12.67V0h4.55V-24.5ZM166.355.35c6.685,0,10.71-3.885,10.71-11.025V-24.5h-4.48v13.65c0,5.04-2.24,7.21-6.2,7.21s-6.23-2.17-6.23-7.21V-24.5h-4.55v13.825C155.61-3.535,159.635.35,166.355.35ZM200.8-12.74a5.874,5.874,0,0,0,3.15-5.39c0-3.885-3.15-6.37-9.03-6.37h-11.48V0h12.18c6.3,0,9.59-2.45,9.59-6.65A6.033,6.033,0,0,0,200.8-12.74Zm-6.37-8.19c3.15,0,4.935,1.12,4.935,3.4,0,2.24-1.785,3.36-4.935,3.36h-6.44V-20.93Zm.91,17.36h-7.35v-7.07h7.35c3.43,0,5.285,1.085,5.285,3.535S198.765-3.57,195.335-3.57Z" transform="translate(93 60)" fill="#002d74"/>
  </g>
</svg>
